<svg xmlns="http://www.w3.org/2000/svg" width="100" height="100" viewBox="0 0 100 100">

  <!-- ── Grand losange extérieur ── -->
  <polygon points="50,4 96,50 50,96 4,50"
    fill="none" stroke="#ffffff" stroke-width="1.4"/>

  <!-- ── Losange médian ── -->
  <polygon points="50,22 78,50 50,78 22,50"
    fill="none" stroke="#ffffff" stroke-width="1.1"/>

  <!-- ── Losange intérieur plein ── -->
  <polygon points="50,36 64,50 50,64 36,50" fill="#ffffff"/>

  <!-- ── Triangles d'angle ── -->
  <polygon points="0,0 18,0 0,18" fill="#ffffff"/>
  <polygon points="100,0 82,0 100,18" fill="#ffffff"/>
  <polygon points="0,100 18,100 0,82" fill="#ffffff"/>
  <polygon points="100,100 82,100 100,82" fill="#ffffff"/>

  <!-- ── Petits triangles sommets grand losange ── -->
  <polygon points="50,4 45,13 55,13" fill="#ffffff"/>
  <polygon points="96,50 87,45 87,55" fill="#ffffff"/>
  <polygon points="50,96 45,87 55,87" fill="#ffffff"/>
  <polygon points="4,50 13,45 13,55" fill="#ffffff"/>

  <!-- ── Petits triangles sommets losange médian ── -->
  <polygon points="50,22 46,29 54,29" fill="#ffffff"/>
  <polygon points="78,50 71,46 71,54" fill="#ffffff"/>
  <polygon points="50,78 46,71 54,71" fill="#ffffff"/>
  <polygon points="22,50 29,46 29,54" fill="#ffffff"/>

  <!-- ── Diagonales vers les angles ── -->
  <line x1="0" y1="0" x2="22" y2="22" stroke="#ffffff" stroke-width="0.8"/>
  <line x1="100" y1="0" x2="78" y2="22" stroke="#ffffff" stroke-width="0.8"/>
  <line x1="0" y1="100" x2="22" y2="78" stroke="#ffffff" stroke-width="0.8"/>
  <line x1="100" y1="100" x2="78" y2="78" stroke="#ffffff" stroke-width="0.8"/>

  <!-- ── Petits losanges décoratifs aux coins ── -->
  <polygon points="22,22 26,18 30,22 26,26" fill="#ffffff"/>
  <polygon points="78,22 74,18 70,22 74,26" fill="#ffffff"/>
  <polygon points="22,78 26,74 30,78 26,82" fill="#ffffff"/>
  <polygon points="78,78 74,74 70,78 74,82" fill="#ffffff"/>

</svg>
